<svg width="203" height="203" viewBox="0 0 203 203" fill="none" xmlns="http://www.w3.org/2000/svg">
<path d="M147.942 28.4951C137.17 26.7727 121.219 26 101.548 26C81.2007 26 65.1864 26.8275 54.3174 28.6562L54.2051 28.6748L54.0928 28.6953C35.567 32.0299 18.5421 40.9331 10.1973 59.0566L10.1592 59.1396L10.1211 59.2236C5.23604 70.0943 4 85.4896 4 102.002C4.00001 118.513 5.23574 133.91 10.1289 144.785L10.165 144.865L10.2021 144.945C18.5477 163.064 35.5715 171.967 54.0967 175.302L54.2051 175.321L54.3135 175.339C65.1876 177.173 81.2064 178 101.552 178C121.893 178 138.054 177.17 148.923 175.341L148.985 175.33L149.049 175.318C164.843 172.556 179.865 165.821 189.096 152.053C195.643 142.287 198.26 129.957 198.965 117.529L198.966 117.513L198.967 117.495C199.175 113.709 198.412 110.085 196.896 106.869V97.2666C198.339 94.2069 199.1 90.7729 198.986 87.1699L198.96 86.5781C198.245 74.032 195.585 62.0051 189.217 52.2705L189.202 52.2471L189.187 52.2246L188.75 51.5723C179.483 37.9857 164.602 31.3988 149.045 28.6777L148.969 28.6641L147.942 28.4951Z" fill="white"/>
<path d="M176.895 89.9595H119.8C118.67 89.9595 117.735 89.0657 117.706 87.9421C117.566 82.8056 116.884 78.4352 115.762 74.8382C115.058 72.4559 113.51 70.4969 111.119 68.6765C108.446 66.5752 105.208 65.4553 101.691 65.4553C94.5141 65.4553 89.589 67.8338 87.1942 72.5946C85.0819 76.6549 84.0991 86.4537 84.0991 101.714C84.0991 116.135 85.0856 125.656 87.1942 130.275C89.7283 135.874 94.5141 138.676 101.691 138.676C108.868 138.676 113.514 135.597 115.766 129.435C116.903 126.546 117.471 122.077 117.577 116.229C117.599 115.091 118.531 114.175 119.675 114.175H176.899C178.109 114.175 179.063 115.197 178.997 116.397C178.384 127.196 176.177 135.407 172.484 140.916C167.416 148.475 158.409 153.378 145.603 155.618C136.457 157.157 121.677 158 101.552 158C81.4256 158 66.7896 157.161 57.6398 155.618C42.8644 152.958 33.0105 146.658 28.3677 136.578C25.4082 130.001 24 118.52 24 102.002C24 85.4833 25.4082 73.9991 28.364 67.4216C33.0068 57.3383 42.8607 51.038 57.6361 48.3786C66.7859 46.8391 81.422 46 101.548 46C121.674 46 136.592 46.8391 145.599 48.3786C158.405 50.6185 167.412 55.5179 172.48 63.219C176.169 68.8589 178.381 76.954 178.993 87.7341C179.063 88.938 178.109 89.9558 176.895 89.9558V89.9595Z" fill="black"/>
</svg>
